<svg xmlns="http://www.w3.org/2000/svg" viewBox="0 0 64 64" role="img" aria-label="Finlytics favicon">
  <defs>
    <linearGradient id="g" x1="0%" y1="0%" x2="100%" y2="100%">
      <stop offset="0%" stop-color="#2563eb" />
      <stop offset="100%" stop-color="#7c3aed" />
    </linearGradient>
  </defs>
  <rect width="64" height="64" rx="16" fill="url(#g)" />
  <path d="M16 24.5c0-1.4 1.1-2.5 2.5-2.5h27c1.4 0 2.5 1.1 2.5 2.5V27h-9.2c-5 0-9 4-9 9s4 9 9 9H48v2.5c0 1.4-1.1 2.5-2.5 2.5h-27c-1.4 0-2.5-1.1-2.5-2.5v-23zm18.3 7.5c0-1.4 1.1-2.5 2.5-2.5H48v10H36.8c-1.4 0-2.5-1.1-2.5-2.5V32zm4.5 2.8c0 .9.7 1.7 1.7 1.7.9 0 1.7-.7 1.7-1.7 0-.9-.7-1.7-1.7-1.7-.9 0-1.7.8-1.7 1.7z" fill="#fff"/>
</svg>
